<svg xmlns="http://www.w3.org/2000/svg" viewBox="0 0 1920 1080" width="100%" height="100%">
  <defs>
    <!-- Background Gradients (Light Lavender to Pale Pink) -->
    <linearGradient id="bgGrad" x1="0%" y1="0%" x2="100%" y2="100%">
      <stop offset="0%" stop-color="#DCE2F8" />
      <stop offset="100%" stop-color="#F5E1E7" />
    </linearGradient>
    
    <!-- Decorative Glow Blobs -->
    <radialGradient id="blobBlue" cx="15%" cy="15%" r="45%">
      <stop offset="0%" stop-color="#A5B4FC" stop-opacity="0.3" />
      <stop offset="100%" stop-color="#A5B4FC" stop-opacity="0" />
    </radialGradient>
    <radialGradient id="blobPink" cx="85%" cy="85%" r="45%">
      <stop offset="0%" stop-color="#FDA4AF" stop-opacity="0.3" />
      <stop offset="100%" stop-color="#FDA4AF" stop-opacity="0" />
    </radialGradient>
    
    <!-- Text Gradients -->
    <linearGradient id="titleGrad" x1="0%" y1="0%" x2="100%" y2="0%">
      <stop offset="0%" stop-color="#0F172A" />
      <stop offset="100%" stop-color="#1E293B" />
    </linearGradient>
    
    <!-- Brand / Tech Colors -->
    <linearGradient id="blueGrad" x1="0%" y1="0%" x2="100%" y2="100%">
      <stop offset="0%" stop-color="#2563EB" />
      <stop offset="100%" stop-color="#1D4ED8" />
    </linearGradient>
    <linearGradient id="greenGrad" x1="0%" y1="0%" x2="100%" y2="100%">
      <stop offset="0%" stop-color="#059669" />
      <stop offset="100%" stop-color="#047857" />
    </linearGradient>
    <linearGradient id="purpleGrad" x1="0%" y1="0%" x2="100%" y2="100%">
      <stop offset="0%" stop-color="#7C3AED" />
      <stop offset="100%" stop-color="#6D28D9" />
    </linearGradient>
    <linearGradient id="orangeGrad" x1="0%" y1="0%" x2="100%" y2="100%">
      <stop offset="0%" stop-color="#EA580C" />
      <stop offset="100%" stop-color="#C2410C" />
    </linearGradient>

    <!-- Translucent Dark Card Borders (Figma high-contrast look) -->
    <linearGradient id="cardBorder" x1="0%" y1="0%" x2="100%" y2="100%">
      <stop offset="0%" stop-color="#ffffff" stop-opacity="0.12" />
      <stop offset="100%" stop-color="#ffffff" stop-opacity="0.02" />
    </linearGradient>
    
    <!-- Drop Shadow -->
    <filter id="cardShadow" x="-10%" y="-10%" width="120%" height="120%">
      <feDropShadow dx="0" dy="8" stdDeviation="16" flood-color="#000000" flood-opacity="0.15" />
    </filter>
  </defs>
  <!-- Background -->
  <rect width="1920" height="1080" fill="url(#bgGrad)" />
  <rect width="1920" height="1080" fill="url(#blobBlue)" />
  <rect width="1920" height="1080" fill="url(#blobPink)" />

  <!-- Header -->
  <g transform="translate(100, 100)">
    <text x="0" y="40" font-family="Inter, sans-serif" font-size="48" font-weight="800" fill="url(#titleGrad)">Stack Tecnológico: React &amp; Spring Boot</text>
    <text x="0" y="75" font-family="Inter, sans-serif" font-size="20" font-weight="500" fill="#4B5563">Integración ágil conectando componentes de frontend con entidades JPA de base de datos</text>
  </g>

  <!-- Columns (High contrast dark cards, matching Jira/GitHub slides) -->
  
  <!-- COLUMN 1: FRONTEND -->
  <g transform="translate(100, 240)">
    <rect width="520" height="660" rx="24" fill="#0D1117" fill-opacity="0.95" stroke="url(#cardBorder)" stroke-width="1.5" filter="url(#cardShadow)" />
    <!-- Gradient Top Bar -->
    <path d="M 24,0 L 496,0 A 24,24 0 0,1 520,24 L 520,24 A 0,0 0 0,1 520,24 L 0,24 A 0,0 0 0,1 0,24 L 0,24 A 24,24 0 0,1 24,0 Z" fill="url(#blueGrad)" />
    
    <!-- Title -->
    <text x="40" y="75" font-family="Inter, sans-serif" font-size="28" font-weight="800" fill="#FFFFFF">Frontend React</text>
    <text x="40" y="105" font-family="Inter, sans-serif" font-size="16" font-weight="500" fill="#60A5FA">Arquitectura por Componentes</text>
    
    <!-- Items -->
    <g transform="translate(40, 160)">
      <!-- Item 1 -->
      <circle cx="20" cy="20" r="15" fill="#1E293B" />
      <text x="15" y="25" font-family="Inter, sans-serif" font-size="14" font-weight="700" fill="#60A5FA">R</text>
      <text x="50" y="18" font-family="Inter, sans-serif" font-size="20" font-weight="700" fill="#FFFFFF">React SPA (Vite)</text>
      <text x="50" y="38" font-family="Inter, sans-serif" font-size="14" font-weight="400" fill="#9CA3AF">Maquetación ágil, reactividad y Virtual DOM</text>
      
      <!-- Item 2 -->
      <g transform="translate(0, 80)">
        <circle cx="20" cy="20" r="15" fill="#1E293B" />
        <text x="15" y="25" font-family="Inter, sans-serif" font-size="12" font-weight="700" fill="#60A5FA">TW</text>
        <text x="50" y="18" font-family="Inter, sans-serif" font-size="20" font-weight="700" fill="#FFFFFF">Tailwind CSS</text>
        <text x="50" y="38" font-family="Inter, sans-serif" font-size="14" font-weight="400" fill="#9CA3AF">Diseño responsive basado en clases utilitarias</text>
      </g>

      <!-- Item 3 -->
      <g transform="translate(0, 160)">
        <circle cx="20" cy="20" r="15" fill="#1E293B" />
        <text x="14" y="25" font-family="Inter, sans-serif" font-size="14" font-weight="700" fill="#60A5FA">JS</text>
        <text x="50" y="18" font-family="Inter, sans-serif" font-size="20" font-weight="700" fill="#FFFFFF">JavaScript (ES6+) / Hooks</text>
        <text x="50" y="38" font-family="Inter, sans-serif" font-size="14" font-weight="400" fill="#9CA3AF">Consumo de la API con Fetch y useEffect</text>
      </g>

      <!-- Item 4 -->
      <g transform="translate(0, 240)">
        <circle cx="20" cy="20" r="15" fill="#1E293B" />
        <text x="15" y="25" font-family="Inter, sans-serif" font-size="14" font-weight="700" fill="#60A5FA">C</text>
        <text x="50" y="18" font-family="Inter, sans-serif" font-size="20" font-weight="700" fill="#FFFFFF">Componentes UI</text>
        <text x="50" y="38" font-family="Inter, sans-serif" font-size="14" font-weight="400" fill="#9CA3AF">Temporizadores, Diario y Formularios</text>
      </g>

      <!-- Visual Banner -->
      <rect x="0" y="320" width="440" height="110" rx="12" fill="#1E293B" fill-opacity="0.4" stroke="#3B82F6" stroke-opacity="0.2" />
      <text x="20" y="45" font-family="Inter, sans-serif" font-size="14" font-weight="600" fill="#3B82F6">MIGRACIÓN DE FRONTEND</text>
      <text x="20" y="75" font-family="Inter, sans-serif" font-size="22" font-weight="800" fill="#FFFFFF">Copia Funcional React</text>
      <circle cx="390" cy="55" r="25" fill="#3B82F6" fill-opacity="0.2" />
      <path d="M380,55 L387,62 L402,47" fill="none" stroke="#3B82F6" stroke-width="3" />
    </g>
  </g>

  <!-- COLUMN 2: BACKEND -->
  <g transform="translate(650, 240)">
    <rect width="520" height="660" rx="24" fill="#0D1117" fill-opacity="0.95" stroke="url(#cardBorder)" stroke-width="1.5" filter="url(#cardShadow)" />
    <!-- Gradient Top Bar -->
    <path d="M 24,0 L 496,0 A 24,24 0 0,1 520,24 L 520,24 A 0,0 0 0,1 520,24 L 0,24 A 0,0 0 0,1 0,24 L 0,24 A 24,24 0 0,1 24,0 Z" fill="url(#greenGrad)" />
    
    <!-- Title -->
    <text x="40" y="75" font-family="Inter, sans-serif" font-size="28" font-weight="800" fill="#FFFFFF">Backend API</text>
    <text x="40" y="105" font-family="Inter, sans-serif" font-size="16" font-weight="500" fill="#34D399">Servicios Java Spring Boot</text>
    
    <!-- Items -->
    <g transform="translate(40, 160)">
      <!-- Item 1 -->
      <circle cx="20" cy="20" r="15" fill="#1E293B" />
      <text x="14" y="25" font-family="Inter, sans-serif" font-size="14" font-weight="700" fill="#34D399">JV</text>
      <text x="50" y="18" font-family="Inter, sans-serif" font-size="20" font-weight="700" fill="#FFFFFF">Java 17 (LTS)</text>
      <text x="50" y="38" font-family="Inter, sans-serif" font-size="14" font-weight="400" fill="#9CA3AF">Código backend tipado y robusto</text>
      
      <!-- Item 2 -->
      <g transform="translate(0, 80)">
        <circle cx="20" cy="20" r="15" fill="#1E293B" />
        <text x="15" y="25" font-family="Inter, sans-serif" font-size="14" font-weight="700" fill="#34D399">S</text>
        <text x="50" y="18" font-family="Inter, sans-serif" font-size="20" font-weight="700" fill="#FFFFFF">Spring Boot 3.x</text>
        <text x="50" y="38" font-family="Inter, sans-serif" font-size="14" font-weight="400" fill="#9CA3AF">Exposición de endpoints JSON estructurados</text>
      </g>

      <!-- Item 3 -->
      <g transform="translate(0, 160)">
        <circle cx="20" cy="20" r="15" fill="#1E293B" />
        <text x="14" y="25" font-family="Inter, sans-serif" font-size="14" font-weight="700" fill="#34D399">H</text>
        <text x="50" y="18" font-family="Inter, sans-serif" font-size="20" font-weight="700" fill="#FFFFFF">Spring Data JPA / Hibernate</text>
        <text x="50" y="38" font-family="Inter, sans-serif" font-size="14" font-weight="400" fill="#9CA3AF">Mapeo de base de datos a objetos Java</text>
      </g>

      <!-- Item 4 -->
      <g transform="translate(0, 240)">
        <circle cx="20" cy="20" r="15" fill="#1E293B" />
        <text x="15" y="25" font-family="Inter, sans-serif" font-size="14" font-weight="700" fill="#34D399">L</text>
        <text x="50" y="18" font-family="Inter, sans-serif" font-size="20" font-weight="700" fill="#FFFFFF">Project Lombok</text>
        <text x="50" y="38" font-family="Inter, sans-serif" font-size="14" font-weight="400" fill="#9CA3AF">Modelos limpios con anotaciones Getter/Setter</text>
      </g>

      <!-- Visual Banner -->
      <rect x="0" y="320" width="440" height="110" rx="12" fill="#1E293B" fill-opacity="0.4" stroke="#10B981" stroke-opacity="0.2" />
      <text x="20" y="45" font-family="Inter, sans-serif" font-size="14" font-weight="600" fill="#10B981">SEGURIDAD BACKEND</text>
      <text x="20" y="75" font-family="Inter, sans-serif" font-size="22" font-weight="800" fill="#FFFFFF">CORS &amp; JWT/OAuth</text>
      <circle cx="390" cy="55" r="25" fill="#10B981" fill-opacity="0.2" />
      <path d="M380,55 L387,62 L402,47" fill="none" stroke="#10B981" stroke-width="3" />
    </g>
  </g>

  <!-- COLUMN 3: BD & INFRA -->
  <g transform="translate(1200, 240)">
    <rect width="520" height="660" rx="24" fill="#0D1117" fill-opacity="0.95" stroke="url(#cardBorder)" stroke-width="1.5" filter="url(#cardShadow)" />
    <!-- Gradient Top Bar -->
    <path d="M 24,0 L 496,0 A 24,24 0 0,1 520,24 L 520,24 A 0,0 0 0,1 520,24 L 0,24 A 0,0 0 0,1 0,24 L 0,24 A 24,24 0 0,1 24,0 Z" fill="url(#purpleGrad)" />
    
    <!-- Title -->
    <text x="40" y="75" font-family="Inter, sans-serif" font-size="28" font-weight="800" fill="#FFFFFF">Datos &amp; DevOps</text>
    <text x="40" y="105" font-family="Inter, sans-serif" font-size="16" font-weight="500" fill="#A78BFA">Persistencia e Infraestructura</text>
    
    <!-- Items -->
    <g transform="translate(40, 160)">
      <!-- Item 1 -->
      <circle cx="20" cy="20" r="15" fill="#1E293B" />
      <text x="14" y="25" font-family="Inter, sans-serif" font-size="14" font-weight="700" fill="#A78BFA">PG</text>
      <text x="50" y="18" font-family="Inter, sans-serif" font-size="20" font-weight="700" fill="#FFFFFF">PostgreSQL (Neon)</text>
      <text x="50" y="38" font-family="Inter, sans-serif" font-size="14" font-weight="400" fill="#9CA3AF">Base de datos serverless con cifrado SSL</text>
      
      <!-- Item 2 -->
      <g transform="translate(0, 80)">
        <circle cx="20" cy="20" r="15" fill="#1E293B" />
        <text x="15" y="25" font-family="Inter, sans-serif" font-size="14" font-weight="700" fill="#A78BFA">H2</text>
        <text x="50" y="18" font-family="Inter, sans-serif" font-size="20" font-weight="700" fill="#FFFFFF">H2 DB (Desarrollo)</text>
        <text x="50" y="38" font-family="Inter, sans-serif" font-size="14" font-weight="400" fill="#9CA3AF">Base de datos rápida en memoria para testing</text>
      </g>

      <!-- Item 3 -->
      <g transform="translate(0, 160)">
        <circle cx="20" cy="20" r="15" fill="#1E293B" />
        <text x="15" y="25" font-family="Inter, sans-serif" font-size="14" font-weight="700" fill="#A78BFA">CI</text>
        <text x="50" y="18" font-family="Inter, sans-serif" font-size="20" font-weight="700" fill="#FFFFFF">GitHub Actions CI</text>
        <text x="50" y="38" font-family="Inter, sans-serif" font-size="14" font-weight="400" fill="#9CA3AF">Compilación y validación de código con Maven</text>
      </g>

      <!-- Item 4 -->
      <g transform="translate(0, 240)">
        <circle cx="20" cy="20" r="15" fill="#1E293B" />
        <text x="15" y="25" font-family="Inter, sans-serif" font-size="14" font-weight="700" fill="#A78BFA">G</text>
        <text x="50" y="18" font-family="Inter, sans-serif" font-size="20" font-weight="700" fill="#FFFFFF">Git / GitHub</text>
        <text x="50" y="38" font-family="Inter, sans-serif" font-size="14" font-weight="400" fill="#9CA3AF">Control de versiones distribuidas (Feature Branch)</text>
      </g>

      <!-- Visual Banner -->
      <rect x="0" y="320" width="440" height="110" rx="12" fill="#1E293B" fill-opacity="0.4" stroke="#8B5CF6" stroke-opacity="0.2" />
      <text x="20" y="45" font-family="Inter, sans-serif" font-size="14" font-weight="600" fill="#8B5CF6">BASE DE DATOS CLOUD</text>
      <text x="20" y="75" font-family="Inter, sans-serif" font-size="22" font-weight="800" fill="#FFFFFF">Neon Serverless Integration</text>
      <circle cx="390" cy="55" r="25" fill="#8B5CF6" fill-opacity="0.2" />
      <path d="M380,55 L387,62 L402,47" fill="none" stroke="#8B5CF6" stroke-width="3" />
    </g>
  </g>

  <!-- Footer -->
  <text x="1820" y="1000" font-family="Inter, sans-serif" font-size="16" font-weight="700" fill="#4B5563" text-anchor="end">AbrazaMente · Presentación Técnica</text>
</svg>