<svg xmlns="http://www.w3.org/2000/svg" viewBox="0 0 1920 1080" width="100%" height="100%">
  <defs>
    <!-- Background Gradients (Light Lavender to Pale Pink) -->
    <linearGradient id="bgGrad" x1="0%" y1="0%" x2="100%" y2="100%">
      <stop offset="0%" stop-color="#DCE2F8" />
      <stop offset="100%" stop-color="#F5E1E7" />
    </linearGradient>
    
    <!-- Decorative Glow Blobs -->
    <radialGradient id="blobBlue" cx="15%" cy="15%" r="45%">
      <stop offset="0%" stop-color="#A5B4FC" stop-opacity="0.3" />
      <stop offset="100%" stop-color="#A5B4FC" stop-opacity="0" />
    </radialGradient>
    <radialGradient id="blobPink" cx="85%" cy="85%" r="45%">
      <stop offset="0%" stop-color="#FDA4AF" stop-opacity="0.3" />
      <stop offset="100%" stop-color="#FDA4AF" stop-opacity="0" />
    </radialGradient>
    
    <!-- Text Gradients -->
    <linearGradient id="titleGrad" x1="0%" y1="0%" x2="100%" y2="0%">
      <stop offset="0%" stop-color="#0F172A" />
      <stop offset="100%" stop-color="#1E293B" />
    </linearGradient>
    
    <!-- Brand / Tech Colors -->
    <linearGradient id="blueGrad" x1="0%" y1="0%" x2="100%" y2="100%">
      <stop offset="0%" stop-color="#2563EB" />
      <stop offset="100%" stop-color="#1D4ED8" />
    </linearGradient>
    <linearGradient id="greenGrad" x1="0%" y1="0%" x2="100%" y2="100%">
      <stop offset="0%" stop-color="#059669" />
      <stop offset="100%" stop-color="#047857" />
    </linearGradient>
    <linearGradient id="purpleGrad" x1="0%" y1="0%" x2="100%" y2="100%">
      <stop offset="0%" stop-color="#7C3AED" />
      <stop offset="100%" stop-color="#6D28D9" />
    </linearGradient>
    <linearGradient id="orangeGrad" x1="0%" y1="0%" x2="100%" y2="100%">
      <stop offset="0%" stop-color="#EA580C" />
      <stop offset="100%" stop-color="#C2410C" />
    </linearGradient>

    <!-- Translucent Dark Card Borders (Figma high-contrast look) -->
    <linearGradient id="cardBorder" x1="0%" y1="0%" x2="100%" y2="100%">
      <stop offset="0%" stop-color="#ffffff" stop-opacity="0.12" />
      <stop offset="100%" stop-color="#ffffff" stop-opacity="0.02" />
    </linearGradient>
    
    <!-- Drop Shadow -->
    <filter id="cardShadow" x="-10%" y="-10%" width="120%" height="120%">
      <feDropShadow dx="0" dy="8" stdDeviation="16" flood-color="#000000" flood-opacity="0.15" />
    </filter>
  </defs>
  <!-- Background -->
  <rect width="1920" height="1080" fill="url(#bgGrad)" />
  <rect width="1920" height="1080" fill="url(#blobPurple)" />
  <rect width="1920" height="1080" fill="url(#blobPink)" />

  <!-- Header -->
  <g transform="translate(100, 100)">
    <text x="0" y="40" font-family="Inter, sans-serif" font-size="48" font-weight="800" fill="url(#titleGrad)">Mapeo y Conexión de Modelos</text>
    <text x="0" y="75" font-family="Inter, sans-serif" font-size="20" font-weight="500" fill="#4B5563">Cómo interactúan los componentes React con las entidades JPA de la base de datos</text>
  </g>

  <!-- Main Map Area (Dark Card) -->
  <g transform="translate(100, 240)">
    <rect width="1720" height="660" rx="24" fill="#0D1117" fill-opacity="0.95" stroke="url(#cardBorder)" stroke-width="1.5" filter="url(#cardShadow)" />
    <path d="M 24,0 L 1696,0 A 24,24 0 0,1 1720,24 L 1720,24 A 0,0 0 0,1 1720,24 L 0,24 A 0,0 0 0,1 0,24 L 0,24 A 24,24 0 0,1 24,0 Z" fill="url(#purpleGrad)" />
    
    <!-- Columns Titles -->
    <text x="80" y="65" font-family="Inter, sans-serif" font-size="22" font-weight="800" fill="#60A5FA">Componentes React (Frontend)</text>
    <text x="580" y="65" font-family="Inter, sans-serif" font-size="22" font-weight="800" fill="#38BDF8">Controlador REST (API)</text>
    <text x="1080" y="65" font-family="Inter, sans-serif" font-size="22" font-weight="800" fill="#34D399">Modelo JPA (Backend)</text>
    <text x="1420" y="65" font-family="Inter, sans-serif" font-size="22" font-weight="800" fill="#A78BFA">Persistencia (Tablas SQL)</text>
    
    <!-- Divider lines in map -->
    <line x1="500" y1="40" x2="500" y2="620" stroke="#374151" stroke-width="1" />
    <line x1="1000" y1="40" x2="1000" y2="620" stroke="#374151" stroke-width="1" />
    
    <!-- Row 1: Users -->
    <g transform="translate(40, 110)">
      <!-- React Component -->
      <rect x="20" y="0" width="400" height="90" rx="12" fill="#1E293B" stroke="#2563EB" stroke-width="1" />
      <text x="40" y="38" font-family="Inter, sans-serif" font-size="18" font-weight="700" fill="#FFFFFF">&lt;UserProfile /&gt;</text>
      <text x="40" y="62" font-family="Inter, sans-serif" font-size="14" font-weight="400" fill="#9CA3AF">Registro, Perfil de Usuario y Login</text>
      
      <!-- Arrow -->
      <line x1="430" y1="45" x2="520" y2="45" stroke="#4B5563" stroke-width="2" />
      <polygon points="520,40 530,45 520,50" fill="#4B5563" />
      
      <!-- Spring Controller -->
      <rect x="540" y="0" width="400" height="90" rx="12" fill="#1E293B" stroke="#059669" stroke-width="1" />
      <text x="560" y="38" font-family="Inter, sans-serif" font-size="18" font-weight="700" fill="#FFFFFF">UserController &amp; AuthController</text>
      <text x="560" y="62" font-family="Inter, sans-serif" font-size="13" font-weight="400" fill="#9CA3AF">POST /api/users, POST /auth/google</text>
      
      <!-- Arrow -->
      <line x1="950" y1="45" x2="1020" y2="45" stroke="#4B5563" stroke-width="2" />
      <polygon points="1020,40 1030,45 1020,50" fill="#4B5563" />
      
      <!-- JPA Model -->
      <rect x="1040" y="0" width="300" height="90" rx="12" fill="#1E293B" stroke="#7C3AED" stroke-width="1" />
      <text x="1060" y="38" font-family="Inter, sans-serif" font-size="18" font-weight="700" fill="#FFFFFF">User.java</text>
      <text x="1060" y="62" font-family="Inter, sans-serif" font-size="14" font-weight="400" fill="#A78BFA">Entidad JPA</text>
      
      <!-- Arrow -->
      <line x1="1350" y1="45" x2="1390" y2="45" stroke="#4B5563" stroke-width="2" />
      <polygon points="1390,40 1400,45 1390,50" fill="#4B5563" />
      
      <!-- Database Table -->
      <rect x="1410" y="0" width="230" height="90" rx="12" fill="#1E293B" stroke="#D1D5DB" stroke-opacity="0.2" stroke-width="1" />
      <text x="1430" y="38" font-family="Inter, sans-serif" font-size="18" font-weight="700" fill="#FFFFFF">usuarios</text>
      <text x="1430" y="62" font-family="Inter, sans-serif" font-size="14" font-weight="400" fill="#9CA3AF">Tabla SQL física</text>
    </g>

    <!-- Row 2: Journal -->
    <g transform="translate(40, 230)">
      <!-- React Component -->
      <rect x="20" y="0" width="400" height="90" rx="12" fill="#1E293B" stroke="#2563EB" stroke-width="1" />
      <text x="40" y="38" font-family="Inter, sans-serif" font-size="18" font-weight="700" fill="#FFFFFF">&lt;MoodTracker /&gt;</text>
      <text x="40" y="62" font-family="Inter, sans-serif" font-size="14" font-weight="400" fill="#9CA3AF">Diario Emocional y registro de estados</text>
      
      <!-- Arrow -->
      <line x1="430" y1="45" x2="520" y2="45" stroke="#4B5563" stroke-width="2" />
      <polygon points="520,40 530,45 520,50" fill="#4B5563" />
      
      <!-- Spring Controller -->
      <rect x="540" y="0" width="400" height="90" rx="12" fill="#1E293B" stroke="#059669" stroke-width="1" />
      <text x="560" y="38" font-family="Inter, sans-serif" font-size="18" font-weight="700" fill="#FFFFFF">JournalController</text>
      <text x="560" y="62" font-family="Inter, sans-serif" font-size="13" font-weight="400" fill="#9CA3AF">POST /api/journal, GET /api/journal/user/<built-in function id></text>
      
      <!-- Arrow -->
      <line x1="950" y1="45" x2="1020" y2="45" stroke="#4B5563" stroke-width="2" />
      <polygon points="1020,40 1030,45 1020,50" fill="#4B5563" />
      
      <!-- JPA Model -->
      <rect x="1040" y="0" width="300" height="90" rx="12" fill="#1E293B" stroke="#7C3AED" stroke-width="1" />
      <text x="1060" y="38" font-family="Inter, sans-serif" font-size="18" font-weight="700" fill="#FFFFFF">JournalEntry.java</text>
      <text x="1060" y="62" font-family="Inter, sans-serif" font-size="14" font-weight="400" fill="#A78BFA">Entidad JPA</text>
      
      <!-- Arrow -->
      <line x1="1350" y1="45" x2="1390" y2="45" stroke="#4B5563" stroke-width="2" />
      <polygon points="1390,40 1400,45 1390,50" fill="#4B5563" />
      
      <!-- Database Table -->
      <rect x="1410" y="0" width="230" height="90" rx="12" fill="#1E293B" stroke="#D1D5DB" stroke-opacity="0.2" stroke-width="1" />
      <text x="1430" y="38" font-family="Inter, sans-serif" font-size="18" font-weight="700" fill="#FFFFFF">diario_emocional</text>
      <text x="1430" y="62" font-family="Inter, sans-serif" font-size="14" font-weight="400" fill="#9CA3AF">Tabla SQL física</text>
    </g>

    <!-- Row 3: SessionReservation -->
    <g transform="translate(40, 350)">
      <!-- React Component -->
      <rect x="20" y="0" width="400" height="90" rx="12" fill="#1E293B" stroke="#2563EB" stroke-width="1" />
      <text x="40" y="38" font-family="Inter, sans-serif" font-size="18" font-weight="700" fill="#FFFFFF">&lt;SessionScheduler /&gt;</text>
      <text x="40" y="62" font-family="Inter, sans-serif" font-size="14" font-weight="400" fill="#9CA3AF">Calendario y agendamiento de telemedicina</text>
      
      <!-- Arrow -->
      <line x1="430" y1="45" x2="520" y2="45" stroke="#4B5563" stroke-width="2" />
      <polygon points="520,40 530,45 520,50" fill="#4B5563" />
      
      <!-- Spring Controller -->
      <rect x="540" y="0" width="400" height="90" rx="12" fill="#1E293B" stroke="#059669" stroke-width="1" />
      <text x="560" y="38" font-family="Inter, sans-serif" font-size="18" font-weight="700" fill="#FFFFFF">SessionReservationController</text>
      <text x="560" y="62" font-family="Inter, sans-serif" font-size="13" font-weight="400" fill="#9CA3AF">POST /api/sessions/book, GET /api/sessions</text>
      
      <!-- Arrow -->
      <line x1="950" y1="45" x2="1020" y2="45" stroke="#4B5563" stroke-width="2" />
      <polygon points="1020,40 1030,45 1020,50" fill="#4B5563" />
      
      <!-- JPA Model -->
      <rect x="1040" y="0" width="300" height="90" rx="12" fill="#1E293B" stroke="#7C3AED" stroke-width="1" />
      <text x="1060" y="38" font-family="Inter, sans-serif" font-size="18" font-weight="700" fill="#FFFFFF">SessionReservation.java</text>
      <text x="1060" y="62" font-family="Inter, sans-serif" font-size="14" font-weight="400" fill="#A78BFA">Entidad JPA</text>
      
      <!-- Arrow -->
      <line x1="1350" y1="45" x2="1390" y2="45" stroke="#4B5563" stroke-width="2" />
      <polygon points="1390,40 1400,45 1390,50" fill="#4B5563" />
      
      <!-- Database Table -->
      <rect x="1410" y="0" width="230" height="90" rx="12" fill="#1E293B" stroke="#D1D5DB" stroke-opacity="0.2" stroke-width="1" />
      <text x="1430" y="38" font-family="Inter, sans-serif" font-size="18" font-weight="700" fill="#FFFFFF">reservas_sesiones</text>
      <text x="1430" y="62" font-family="Inter, sans-serif" font-size="14" font-weight="400" fill="#9CA3AF">Tabla SQL física</text>
    </g>

    <!-- Row 4: Professionals -->
    <g transform="translate(40, 470)">
      <!-- React Component -->
      <rect x="20" y="0" width="400" height="90" rx="12" fill="#1E293B" stroke="#2563EB" stroke-width="1" />
      <text x="40" y="38" font-family="Inter, sans-serif" font-size="18" font-weight="700" fill="#FFFFFF">&lt;ClinicianDirectory /&gt;</text>
      <text x="40" y="62" font-family="Inter, sans-serif" font-size="14" font-weight="400" fill="#9CA3AF">Directorio clínico y tarjetas de psicólogos</text>
      
      <!-- Arrow -->
      <line x1="430" y1="45" x2="520" y2="45" stroke="#4B5563" stroke-width="2" />
      <polygon points="520,40 530,45 520,50" fill="#4B5563" />
      
      <!-- Spring Controller -->
      <rect x="540" y="0" width="400" height="90" rx="12" fill="#1E293B" stroke="#059669" stroke-width="1" />
      <text x="560" y="38" font-family="Inter, sans-serif" font-size="18" font-weight="700" fill="#FFFFFF">ProfessionalController</text>
      <text x="560" y="62" font-family="Inter, sans-serif" font-size="13" font-weight="400" fill="#9CA3AF">GET /api/professionals</text>
      
      <!-- Arrow -->
      <line x1="950" y1="45" x2="1020" y2="45" stroke="#4B5563" stroke-width="2" />
      <polygon points="1020,40 1030,45 1020,50" fill="#4B5563" />
      
      <!-- JPA Model -->
      <rect x="1040" y="0" width="300" height="90" rx="12" fill="#1E293B" stroke="#7C3AED" stroke-width="1" />
      <text x="1060" y="38" font-family="Inter, sans-serif" font-size="18" font-weight="700" fill="#FFFFFF">Professional.java</text>
      <text x="1060" y="62" font-family="Inter, sans-serif" font-size="14" font-weight="400" fill="#A78BFA">Entidad JPA</text>
      
      <!-- Arrow -->
      <line x1="1350" y1="45" x2="1390" y2="45" stroke="#4B5563" stroke-width="2" />
      <polygon points="1390,40 1400,45 1390,50" fill="#4B5563" />
      
      <!-- Database Table -->
      <rect x="1410" y="0" width="230" height="90" rx="12" fill="#1E293B" stroke="#D1D5DB" stroke-opacity="0.2" stroke-width="1" />
      <text x="1430" y="38" font-family="Inter, sans-serif" font-size="18" font-weight="700" fill="#FFFFFF">profesionales</text>
      <text x="1430" y="62" font-family="Inter, sans-serif" font-size="14" font-weight="400" fill="#9CA3AF">Tabla SQL física</text>
    </g>
  </g>

  <!-- Footer -->
  <text x="1820" y="1000" font-family="Inter, sans-serif" font-size="16" font-weight="700" fill="#4B5563" text-anchor="end">AbrazaMente · Presentación Técnica</text>
</svg>